<svg fill="#0CA48F" xmlns="http://www.w3.org/2000/svg" xmlns:xlink="http://www.w3.org/1999/xlink" version="1.1" x="0px" y="0px" viewBox="0 0 100 100" style="enable-background:new 0 0 100 100;" xml:space="preserve"><style type="text/css">
	.st0{fill:none;stroke:#0CA48F;stroke-width:2;stroke-linecap:round;stroke-linejoin:round;stroke-miterlimit:10;}
	.st1{fill:none;stroke:#0CA48F;stroke-width:2;stroke-miterlimit:10;}
	.st2{stroke:#0CA48F;stroke-width:2;stroke-linecap:round;stroke-linejoin:round;stroke-miterlimit:10;}
	.st3{fill:none;stroke:#0CA48F;stroke-linecap:round;stroke-linejoin:round;stroke-miterlimit:10;}
</style><path d="M16,62.7h17l-4.5,23c-0.1,0.5,0.2,1.1,0.8,1.2c0.1,0,0.1,0,0.2,0c0.5,0,0.9-0.3,1-0.8l4.6-23.4h30.6l4.6,23.4  c0.1,0.5,0.5,0.8,1,0.8c0.1,0,0.1,0,0.2,0c0.5-0.1,0.9-0.6,0.8-1.2l-4.5-23h17c0.6,0,1-0.4,1-1s-0.4-1-1-1h-3V19.4c0-0.6-0.4-1-1-1  H51.4V15c0-0.6-0.4-1-1-1s-1,0.4-1,1v3.4H20c-0.6,0-1,0.4-1,1v41.3h-3c-0.6,0-1,0.4-1,1S15.5,62.7,16,62.7z M21,20.4h58.7v40.3H21  V20.4z"></path><path d="M43.8,28.5h-9.4c-0.6,0-1,0.4-1,1v11.4c0,0.6,0.4,1,1,1h9.4c0.6,0,1-0.4,1-1V29.5C44.8,29,44.4,28.5,43.8,28.5z M42.8,39.9  h-0.7c-0.1-1.3-0.9-2.3-2.1-2.7c0.6-0.3,1.1-1,1.1-1.8c0-1.1-0.9-2-2-2c-1.1,0-2,0.9-2,2c0,0.8,0.5,1.4,1.1,1.8  c-1.2,0.4-2,1.4-2.1,2.7h-0.7v-9.4h7.4V39.9z"></path><path d="M64.3,24.5L57.5,24c-0.3,0-0.5,0.1-0.7,0.2c-0.2,0.2-0.3,0.4-0.4,0.7l-0.7,8.5c0,0.3,0.1,0.5,0.2,0.7  c0.2,0.2,0.4,0.3,0.7,0.4l6.8,0.6c0,0,0.1,0,0.1,0c0.5,0,1-0.4,1-0.9l0.7-8.5C65.2,25.1,64.8,24.6,64.3,24.5z M62.6,33l-4.8-0.4  l0.6-6.5l4.8,0.4L62.6,33z"></path><path d="M36.5,46.7L29.9,45c-0.5-0.1-1.1,0.2-1.2,0.7L26.5,54c-0.1,0.5,0.2,1.1,0.7,1.2l6.6,1.7c0.1,0,0.2,0,0.2,0  c0.4,0,0.9-0.3,1-0.8l2.1-8.3c0.1-0.3,0-0.5-0.1-0.8C37,46.9,36.7,46.7,36.5,46.7z M33.4,54.7l-4.7-1.2l1.6-6.4l4.7,1.2L33.4,54.7z"></path><path d="M75.6,46.4c0-0.6-0.5-1-1.1-0.9l-6.8,0.6c-0.3,0-0.5,0.1-0.7,0.4c-0.2,0.2-0.3,0.5-0.2,0.7l0.7,8.5c0,0.5,0.5,0.9,1,0.9  c0,0,0.1,0,0.1,0l6.8-0.6c0.3,0,0.5-0.1,0.7-0.4c0.2-0.2,0.3-0.5,0.2-0.7L75.6,46.4z M69.5,54.5L68.9,48l4.8-0.4l0.6,6.5L69.5,54.5z  "></path><path d="M59.7,40.2c-0.2-0.2-0.5-0.3-0.7-0.2l-9.4,0.7c-0.6,0-1,0.5-0.9,1.1l0.9,11.4c0,0.5,0.5,0.9,1,0.9c0,0,0.1,0,0.1,0l9.4-0.7  c0.3,0,0.5-0.1,0.7-0.3s0.3-0.5,0.2-0.7L60,40.9C60,40.6,59.9,40.4,59.7,40.2z M58.1,51.5c-0.2-1.3-1.1-2.2-2.3-2.5  c0.6-0.4,1-1.1,1-1.8c-0.1-1.1-1-1.9-2.1-1.8c-1.1,0.1-1.9,1-1.8,2.1c0.1,0.8,0.6,1.4,1.2,1.7c-1.1,0.4-1.9,1.5-1.9,2.8L51.4,52  l-0.7-9.4l7.4-0.6l0.7,9.4L58.1,51.5z"></path></svg>