<?xml version="1.0" encoding="utf-8"?>
<!-- Generator: Adobe Illustrator 21.1.0, SVG Export Plug-In . SVG Version: 6.00 Build 0)  -->
<svg version="1.1" id="Layer_1" xmlns="http://www.w3.org/2000/svg" xmlns:xlink="http://www.w3.org/1999/xlink" x="0px" y="0px"
	 viewBox="0 0 123.8 123.8" style="enable-background:new 0 0 123.8 123.8;" xml:space="preserve">
<style type="text/css">
	.st0{fill:#0CA48F;}
</style>
<g>
	<g>
		<circle class="st0" cx="20.6" cy="67.2" r="1.5"/>
		<circle class="st0" cx="17.8" cy="25.9" r="2.2"/>
		<circle class="st0" cx="18.9" cy="16.2" r="2.2"/>
		<circle class="st0" cx="24.1" cy="21.6" r="2.2"/>
		<path class="st0" d="M40.7,106.5l-7.3-33h5v-3.7h-3.7c0.4-1.4,0.7-2.9,0.7-4.4c0-6.5-4.2-12.1-10-14.1V33.9h2v-3.3H13.3v3.3h2
			v17.4c-5.8,2.1-10,7.6-10,14.1c0,1.5,0.2,3,0.7,4.4H2.4v3.7h5l-7.3,33l3.6,0.8l6.8-30.6c2.6,2.3,6.1,3.8,9.9,3.8
			c3.9,0,7.4-1.5,10-3.9l6.8,30.8L40.7,106.5z M20.6,56.3c0.8,0,1.5,0.7,1.5,1.5s-0.7,1.5-1.5,1.5s-1.5-0.7-1.5-1.5
			C19.1,57,19.7,56.3,20.6,56.3z M13.7,57.9c1.2,0,2.1,1,2.1,2.1c0,1.2-1,2.1-2.1,2.1s-2.1-1-2.1-2.1C11.6,58.9,12.5,57.9,13.7,57.9
			z M6.8,65.4c6.2,0,27-5.7,27,0c0,1.5-0.3,3-0.8,4.4h-3.3c0.4-0.5,0.7-1,0.7-1.7c0-1.4-1.1-2.5-2.5-2.5s-2.5,1.1-2.5,2.5
			c0,0.7,0.3,1.2,0.7,1.7h-9.4c-0.5-0.5-1.1-0.8-1.8-0.8s-1.3,0.3-1.8,0.8H7.5C7.1,68.4,6.8,66.9,6.8,65.4z M20.3,78.9
			c-3.7,0-7.1-1.5-9.5-4l0.3-1.5h2.1c0.4,0.4,1,0.6,1.7,0.6s1.2-0.2,1.7-0.6h4.8c-0.1,0.2-0.1,0.4-0.1,0.6c0,0.8,0.7,1.5,1.5,1.5
			s1.5-0.7,1.5-1.5c0-0.2-0.1-0.4-0.1-0.6h5.7l0.3,1.3C27.5,77.3,24.1,78.9,20.3,78.9z"/>
		<path class="st0" d="M9.7,107.4H31c0-2.9-4-5.3-9.1-5.7v-9.1h-3v9.1C13.7,102.1,9.7,104.5,9.7,107.4z"/>
		<ellipse class="st0" cx="20.4" cy="85.9" rx="2.1" ry="5.1"/>
	</g>
	<g>
		<rect x="75.2" y="73" class="st0" width="4.6" height="4.5"/>
		<rect x="93.8" y="73" class="st0" width="4.6" height="4.5"/>
		<rect x="49.8" y="73" class="st0" width="11.4" height="4.5"/>
		<rect x="112.4" y="73" class="st0" width="11.4" height="4.5"/>
		<rect x="93.8" y="94.3" class="st0" width="4.6" height="4.5"/>
		<rect x="49.8" y="94.3" class="st0" width="11.4" height="4.5"/>
		<rect x="112.4" y="94.3" class="st0" width="11.4" height="4.5"/>
		<rect x="75.2" y="94.3" class="st0" width="4.6" height="4.5"/>
		<path class="st0" d="M73.2,65.3h2v-2.5h-14v2.5h2v39.5c0,2.8,2.2,5,5,5s5-2.2,5-5V65.3z M71.2,104.8c0,1.7-1.3,3-3,3s-3-1.3-3-3
			v-22h6V104.8z"/>
		<path class="st0" d="M91.8,65.3h2v-2.5h-14v2.5h2v39.5c0,2.8,2.2,5,5,5s5-2.2,5-5V65.3z M89.8,104.8c0,1.7-1.3,3-3,3s-3-1.3-3-3
			V93h6V104.8z"/>
		<path class="st0" d="M110.4,65.3h2v-2.5h-14v2.5h2v39.5c0,2.8,2.2,5,5,5s5-2.2,5-5V65.3z M108.4,104.8c0,1.7-1.3,3-3,3s-3-1.3-3-3
			V88h6V104.8z"/>
	</g>
</g>
</svg>
