<svg fill="#0CA48F" xmlns="http://www.w3.org/2000/svg" data-name="Layer 1" viewBox="0 0 100 100" x="0px" y="0px"><title>Artboard 130</title><path d="M73.53,43.3,70.7,31.94l7.91-9L76.3,20.41,65.37,30,66,41.58,39.18,42.79,25.3,41.05,10.61,53.26,12.05,57l13.24-7.47,13.79,4.27L26.26,57.56,12.58,76l3,2.13L29.09,64.29l19.16-2.92,16.41-3.5L64,65.47,53.67,75l2.43,2.45L67.66,68l5.47-12.36c-2.78-.91-4-6.22.31-9.05Z"></path><path d="M5.27,51.85,23.93,36.35l15.49,1.94,21.82-1-.46-9.19,15.88-14,8,8.82-9,10.23,2.14,8.59a11.52,11.52,0,0,1,4.78-.92,11.4,11.4,0,0,1,8,3.56A11.55,11.55,0,0,1,93,56.31a11.48,11.48,0,0,1-17.59,5.2l-4.1,9.26L55.79,83.49l-8.61-8.66L59.44,63.59,49.07,65.8,31.25,68.51,16,84,6.25,77l14.7-19.79L9.71,63.52ZM24.32,37.69,6.8,52.25l3.58,9.41,15.21-8.58L8.06,76.69l7.84,5.66,14.73-15,18.21-2.77,12.26-2.61-.16,2L49,74.88l6.85,6.89L70.29,70,75,59.43l.66.57a10.2,10.2,0,0,0,16.22-4.14,10.25,10.25,0,0,0-2.17-10.6,10.2,10.2,0,0,0-12-2l-.72.37L74.23,32.8l8.69-9.87-6.36-7L62.09,28.65l.49,9.87-23.22,1Z"></path><path d="M73.53,43.3,70.7,31.94l7.91-9L76.3,20.41,65.37,30,66,41.58,39.18,42.79,25.3,41.05,10.61,53.26,12.05,57l13.24-7.47,13.79,4.27L26.26,57.56,12.58,76l3,2.13L29.09,64.29l19.16-2.92,16.41-3.5L64,65.47,53.67,75l2.43,2.45L67.66,68l5.47-12.36c-2.78-.91-4-6.22.31-9.05Z"></path><circle cx="82.41" cy="51.72" r="6.98" transform="translate(-12.93 71.13) rotate(-43.62)"></circle></svg>